{"title":"I'll Get You(1952)MPEG-4[DaScubaDude]","uid":14322344,"size":799125041,"categoryP":"video","categoryS":"movies","magnet":"?xt=urn:btih:f2ace477c0e99cf7cf5e651feb922075bd5f860c&amp;dn=I%27ll+Get+You%281952%29MPEG-4%5BDaScubaDude%5D&amp;tr=udp%3A%2F%2Ftracker.leechers-paradise.org%3A6969&amp;tr=udp%3A%2F%2Fzer0day.ch%3A1337&amp;tr=udp%3A%2F%2Fopen.demonii.com%3A1337&amp;tr=udp%3A%2F%2Ftracker.coppersurfer.tk%3A6969&amp;tr=udp%3A%2F%2Fexodus.desync.com%3A6969","seeders":0,"leechers":1,"uploader":"dascuba","files":1,"time":1460618320,"description":"I'll Get You (1952)\r\nEscape Route (original title)\r\nApproved | 1h 18min | Crime, Thriller, Drama | 16 January 1953 (USA)\r\nWhen nuclear scientists are kidnapped and smuggled behind the Iron Curtain, an FBI man and a British agent are assigned to catch the kidnappers.\r\nDirectors: Seymour Friedman, Peter Graham Scott\r\nWriters: John Baines (as John V. Baines), Nicholas Phipps (additional dialogue)\r\nStars: George Raft, Sally Gray, Frederick Piper\r\n\r\nGeneral\r\nComplete name                            : I'll Get YouForgottenNoir6_Title4.mp4\r\nFormat                                   : MPEG-4\r\nFormat profile                           : Base Media\r\nCodec ID                                 : isom\r\nFile size                                : 762 MiB\r\nDuration                                 : 1h 18mn\r\nOverall bit rate                         : 1 349 Kbps\r\nMovie name                               : ForgottenNoir6_Title4\r\nWriting application                      : Lavf54.6.100\r\n\r\nVideo\r\nID                                       : 1\r\nFormat                                   : AVC\r\nFormat/Info                              : Advanced Video Codec\r\nFormat profile                           :   \r\nFormat settings, CABAC                   : No\r\nFormat settings, ReFrames                : 6 frames\r\nCodec ID                                 : avc1\r\nCodec ID/Info                            : Advanced Video Coding\r\nDuration                                 : 1h 18mn\r\nBit rate                                 : 1 214 Kbps\r\nWidth                                    : 720 pixels\r\nHeight                                   : 540 pixels\r\nDisplay aspect ratio                     : 4:3\r\nFrame rate mode                          : Constant\r\nFrame rate                               : 29.970 fps\r\nColor space                              : YUV\r\nChroma subsampling                       : 4:2:0\r\nBit depth                                : 8 bits\r\nScan type                                : Progressive\r\nBits/(Pixel*Frame)                       : 0.104\r\nStream size                              : 686 MiB (90%)\r\n\r\nAudio\r\nID                                       : 2\r\nFormat                                   : AAC\r\nFormat/Info                              : Advanced Audio Codec\r\nFormat profile                           : LC\r\nCodec ID                                 : 40\r\nDuration                                 : 1h 18mn\r\nBit rate mode                            : Constant\r\nBit rate                                 : 128 Kbps\r\nChannel(s)                               : 2 channels\r\nChannel positions                        : Front: L R\r\nSampling rate                            : 44.1 KHz\r\nCompression mode                         : Lossy\r\nStream size                              : 72.3 MiB (9%)","torrent":{"xt":"urn:btih:f2ace477c0e99cf7cf5e651feb922075bd5f860c","amp;dn":"I%27ll+Get+You%281952%29MPEG-4%5BDaScubaDude%5D","amp;tr":["udp%3A%2F%2Ftracker.leechers-paradise.org%3A6969","udp%3A%2F%2Fzer0day.ch%3A1337","udp%3A%2F%2Fopen.demonii.com%3A1337","udp%3A%2F%2Ftracker.coppersurfer.tk%3A6969","udp%3A%2F%2Fexodus.desync.com%3A6969"],"infoHash":"f2ace477c0e99cf7cf5e651feb922075bd5f860c","infoHashBuffer":{"type":"Buffer","data":[242,172,228,119,192,233,156,247,207,94,101,31,235,146,32,117,189,95,134,12]},"announce":[],"urlList":[]}}